<svg xmlns="http://www.w3.org/2000/svg" xmlns:xlink="http://www.w3.org/1999/xlink" width="300" zoomAndPan="magnify" viewBox="0 0 224.87999 225" height="300" preserveAspectRatio="xMidYMid meet" version="1.0"><defs><g/></defs><g fill="#ff914d" fill-opacity="1"><g transform="translate(0.550487, 141.521862)"><g><path d="M 14.25 -41.078125 C 12.570312 -41.078125 11.144531 -41.664062 9.96875 -42.84375 C 8.78125 -44.03125 8.1875 -45.460938 8.1875 -47.140625 C 8.1875 -48.804688 8.78125 -50.234375 9.96875 -51.421875 C 11.144531 -52.597656 12.570312 -53.1875 14.25 -53.1875 C 15.914062 -53.1875 17.34375 -52.597656 18.53125 -51.421875 C 19.71875 -50.234375 20.3125 -48.804688 20.3125 -47.140625 C 20.3125 -45.460938 19.71875 -44.03125 18.53125 -42.84375 C 17.34375 -41.664062 15.914062 -41.078125 14.25 -41.078125 Z M 28.21875 -41.078125 C 26.519531 -41.078125 25.078125 -41.664062 23.890625 -42.84375 C 22.710938 -44.03125 22.125 -45.460938 22.125 -47.140625 C 22.125 -48.804688 22.710938 -50.234375 23.890625 -51.421875 C 25.078125 -52.597656 26.519531 -53.1875 28.21875 -53.1875 C 29.882812 -53.1875 31.3125 -52.597656 32.5 -51.421875 C 33.6875 -50.234375 34.28125 -48.804688 34.28125 -47.140625 C 34.28125 -45.460938 33.6875 -44.03125 32.5 -42.84375 C 31.3125 -41.664062 29.882812 -41.078125 28.21875 -41.078125 Z M 26.6875 -17.65625 C 26.425781 -20.976562 24.601562 -22.828125 21.21875 -23.203125 C 17.894531 -22.828125 16.0625 -20.992188 15.71875 -17.703125 L 15.71875 -12.1875 L 26.6875 -12.1875 Z M 45.359375 -12.234375 L 45.359375 0 L 9.65625 0 C 8.5625 -0.09375 7.609375 -0.335938 6.796875 -0.734375 C 4.890625 -1.660156 3.785156 -3.445312 3.484375 -6.09375 L 3.484375 -17.65625 C 3.578125 -22.582031 5.332031 -26.742188 8.75 -30.140625 C 12.15625 -33.546875 16.3125 -35.296875 21.21875 -35.390625 C 26.1875 -35.296875 30.363281 -33.546875 33.75 -30.140625 C 37.144531 -26.742188 38.863281 -22.582031 38.90625 -17.65625 L 38.90625 -12.234375 Z M 45.359375 -12.234375 "/></g></g></g><g fill="#ff914d" fill-opacity="1"><g transform="translate(45.835195, 141.521862)"><g><path d="M 30.453125 4.640625 C 29.640625 4.640625 28.847656 4.789062 28.078125 5.09375 C 27.359375 5.414062 26.707031 5.851562 26.125 6.40625 C 25.570312 6.96875 25.144531 7.617188 24.84375 8.359375 C 24.507812 9.097656 24.34375 9.890625 24.34375 10.734375 C 24.34375 11.546875 24.507812 12.332031 24.84375 13.09375 C 25.144531 13.8125 25.570312 14.460938 26.125 15.046875 C 26.707031 15.609375 27.359375 16.039062 28.078125 16.34375 C 28.847656 16.664062 29.640625 16.828125 30.453125 16.828125 C 31.285156 16.828125 32.070312 16.664062 32.8125 16.34375 C 33.5625 16.039062 34.210938 15.609375 34.765625 15.046875 C 35.328125 14.460938 35.769531 13.8125 36.09375 13.09375 C 36.394531 12.332031 36.546875 11.546875 36.546875 10.734375 C 36.546875 9.890625 36.394531 9.097656 36.09375 8.359375 C 35.769531 7.617188 35.328125 6.96875 34.765625 6.40625 C 34.210938 5.851562 33.5625 5.414062 32.8125 5.09375 C 32.070312 4.789062 31.285156 4.640625 30.453125 4.640625 Z M 45.875 -29.328125 C 42.582031 -32.628906 38.554688 -34.300781 33.796875 -34.34375 L 16.125 -34.34375 C 12.382812 -34.019531 10.351562 -31.976562 10.03125 -28.21875 C 10.351562 -24.519531 12.382812 -22.460938 16.125 -22.046875 L 33.796875 -22.046875 C 36.742188 -21.816406 38.378906 -20.203125 38.703125 -17.203125 C 38.378906 -14.234375 36.742188 -12.585938 33.796875 -12.265625 L -3.140625 -12.265625 L -3.140625 0 L 33.796875 0 C 38.554688 -0.09375 42.582031 -1.789062 45.875 -5.09375 C 49.195312 -8.40625 50.90625 -12.441406 51 -17.203125 C 50.90625 -22.015625 49.195312 -26.054688 45.875 -29.328125 Z M 45.875 -29.328125 "/></g></g></g><g fill="#ff914d" fill-opacity="1"><g transform="translate(100.316181, 141.521862)"><g><path d="M 9.578125 -34.25 C 5.835938 -33.875 3.804688 -31.835938 3.484375 -28.140625 L 3.484375 10.828125 C 3.804688 14.566406 5.835938 16.601562 9.578125 16.9375 C 13.273438 16.601562 15.304688 14.566406 15.671875 10.828125 L 15.671875 -28.140625 C 15.304688 -31.835938 13.273438 -33.875 9.578125 -34.25 Z M 9.578125 -34.25 "/></g></g></g><g fill="#ff914d" fill-opacity="1"><g transform="translate(119.475096, 141.521862)"><g><path d="M 25.5 -12.265625 L 15.75 -12.265625 L 15.75 -17.109375 C 15.976562 -20.054688 17.59375 -21.691406 20.59375 -22.015625 C 23.539062 -21.691406 25.175781 -20.054688 25.5 -17.109375 Z M 37.734375 -12.265625 L 37.734375 -17.109375 C 37.660156 -21.867188 35.960938 -25.894531 32.640625 -29.1875 C 31.109375 -30.71875 29.414062 -31.90625 27.5625 -32.75 C 25.445312 -33.71875 23.125 -34.226562 20.59375 -34.28125 C 15.78125 -34.1875 11.738281 -32.488281 8.46875 -29.1875 C 5.1875 -25.894531 3.523438 -21.867188 3.484375 -17.109375 L 3.484375 -6.09375 C 3.804688 -2.351562 5.828125 -0.320312 9.546875 0 L 25.5625 0 L 25.5625 10.6875 C 25.894531 14.425781 27.929688 16.460938 31.671875 16.796875 C 35.335938 16.460938 37.359375 14.425781 37.734375 10.6875 L 37.734375 0 L 41.875 0 L 41.875 -12.265625 Z M 37.734375 -12.265625 "/></g></g></g><g fill="#ff914d" fill-opacity="1"><g transform="translate(161.276365, 141.521862)"><g><path d="M 28.328125 -39.046875 C 29.140625 -39.046875 29.925781 -39.207031 30.6875 -39.53125 C 31.40625 -39.832031 32.054688 -40.265625 32.640625 -40.828125 C 33.203125 -41.378906 33.632812 -42.03125 33.9375 -42.78125 C 34.257812 -43.519531 34.421875 -44.304688 34.421875 -45.140625 C 34.421875 -45.984375 34.257812 -46.773438 33.9375 -47.515625 C 33.632812 -48.253906 33.203125 -48.90625 32.640625 -49.46875 C 32.054688 -50.019531 31.40625 -50.445312 30.6875 -50.75 C 29.925781 -51.082031 29.140625 -51.25 28.328125 -51.25 C 27.484375 -51.25 26.679688 -51.082031 25.921875 -50.75 C 25.203125 -50.445312 24.5625 -50.019531 24 -49.46875 C 23.445312 -48.90625 23.003906 -48.253906 22.671875 -47.515625 C 22.347656 -46.773438 22.1875 -45.984375 22.1875 -45.140625 C 22.1875 -44.304688 22.347656 -43.519531 22.671875 -42.78125 C 23.003906 -42.03125 23.445312 -41.378906 24 -40.828125 C 24.5625 -40.265625 25.203125 -39.832031 25.921875 -39.53125 C 26.679688 -39.207031 27.484375 -39.046875 28.328125 -39.046875 Z M 35.46875 -45.140625 C 35.46875 -44.304688 35.628906 -43.519531 35.953125 -42.78125 C 36.253906 -42.03125 36.695312 -41.378906 37.28125 -40.828125 C 37.832031 -40.265625 38.46875 -39.832031 39.1875 -39.53125 C 39.957031 -39.207031 40.757812 -39.046875 41.59375 -39.046875 C 42.40625 -39.046875 43.195312 -39.207031 43.96875 -39.53125 C 44.6875 -39.832031 45.320312 -40.265625 45.875 -40.828125 C 46.457031 -41.378906 46.898438 -42.03125 47.203125 -42.78125 C 47.523438 -43.519531 47.6875 -44.304688 47.6875 -45.140625 C 47.6875 -45.984375 47.523438 -46.773438 47.203125 -47.515625 C 46.898438 -48.253906 46.457031 -48.90625 45.875 -49.46875 C 45.320312 -50.019531 44.6875 -50.445312 43.96875 -50.75 C 43.195312 -51.082031 42.40625 -51.25 41.59375 -51.25 C 40.757812 -51.25 39.957031 -51.082031 39.1875 -50.75 C 38.46875 -50.445312 37.832031 -50.019531 37.28125 -49.46875 C 36.695312 -48.90625 36.253906 -48.253906 35.953125 -47.515625 C 35.628906 -46.773438 35.46875 -45.984375 35.46875 -45.140625 Z M 34.9375 -52.328125 C 35.769531 -52.328125 36.5625 -52.488281 37.3125 -52.8125 C 38.050781 -53.113281 38.703125 -53.554688 39.265625 -54.140625 C 39.816406 -54.691406 40.253906 -55.328125 40.578125 -56.046875 C 40.878906 -56.816406 41.03125 -57.609375 41.03125 -58.421875 C 41.03125 -59.253906 40.878906 -60.054688 40.578125 -60.828125 C 40.253906 -61.546875 39.816406 -62.179688 39.265625 -62.734375 C 38.703125 -63.316406 38.050781 -63.757812 37.3125 -64.0625 C 36.5625 -64.382812 35.769531 -64.546875 34.9375 -64.546875 C 34.101562 -64.546875 33.316406 -64.382812 32.578125 -64.0625 C 31.828125 -63.757812 31.175781 -63.316406 30.625 -62.734375 C 30.0625 -62.179688 29.628906 -61.546875 29.328125 -60.828125 C 29.003906 -60.054688 28.84375 -59.253906 28.84375 -58.421875 C 28.84375 -57.609375 29.003906 -56.816406 29.328125 -56.046875 C 29.628906 -55.328125 30.0625 -54.691406 30.625 -54.140625 C 31.175781 -53.554688 31.828125 -53.113281 32.578125 -52.8125 C 33.316406 -52.488281 34.101562 -52.328125 34.9375 -52.328125 Z M 53.4375 -34.3125 C 49.65625 -33.9375 47.597656 -31.878906 47.265625 -28.140625 L 47.265625 -12.265625 L 41.03125 -12.265625 L 41.03125 -28.140625 C 40.664062 -31.878906 38.632812 -33.9375 34.9375 -34.3125 C 31.15625 -33.9375 29.101562 -31.878906 28.78125 -28.140625 L 28.78125 -12.265625 L 22.53125 -12.265625 L 22.53125 -28.140625 C 22.164062 -31.878906 20.132812 -33.9375 16.4375 -34.3125 C 12.632812 -33.9375 10.582031 -31.878906 10.28125 -28.140625 L 10.28125 -12.265625 L -3.140625 -12.265625 L -3.140625 0 L 53.4375 0 C 57.15625 -0.320312 59.195312 -2.351562 59.5625 -6.09375 L 59.5625 -28.140625 C 59.195312 -31.878906 57.15625 -33.9375 53.4375 -34.3125 Z M 53.4375 -34.3125 "/></g></g></g></svg>